<svg version="1.2" xmlns="http://www.w3.org/2000/svg" viewBox="0 0 2000 2000" width="1000" height="1000">
	<style>
		.s0 { opacity: .99;fill: #ffffff } 
	</style>
	<path id="Path 0" class="s0" d="m872 223.54c-75.08 122.89-136.61 223.9-136.75 224.45-0.16 0.66 10.48 0.99 31 0.96l31.25-0.05c161.98-275.94 209.67-357.15 210.5-358.5 1.46-2.4 4.17 2.09 107.5 178.05l106 180.5c49.57 0.04 62.4-0.33 62.25-0.86-0.14-0.5-61.67-101.52-136.75-224.48-75.08-122.96-136.95-223.55-137.5-223.54-0.55 0.01-62.42 100.57-137.5 223.47zm34.81 64.08l-102.69 173.88-78.12 0.5c-251.1 406.88-324 525.23-324 525.5 0 0.27 40.39 0.52 89.75 0.54l89.75 0.05c314.58-514.28 410.88-671.72 416.96-681.66l11.04-18.08c329.72 539.52 426.02 696.94 426.72 697.91 1.21 1.66 6.29 1.74 89.45 1.5l88.16-0.26-320.92-525-78.2-1c-157.17-266.6-203.34-344.84-204-345.88-1.06-1.64-13.92 19.65-103.9 172zm-503.55 723.13c0.25 0.41 72.52 118.76 160.6 263l160.14 262.25 78.15 0.5c158.54 268.92 204.95 347 205.4 347 0.46 0 46.99-78.18 103.39-173.73l102.56-173.74 77.96-0.53c250.74-405.71 323.54-523.95 323.54-524.5 0-0.66-30.57-0.99-89.75-0.98l-89.75 0.02-428 699.94c-5.49-8.9-101.68-166.39-217.29-355.73l-210.21-344.25c-137.33 0-177 0.34-176.74 0.75zm330.65 540.99c0.55 0.97 62.18 101.88 136.94 224.26 74.77 122.37 136.28 222.5 136.7 222.5 0.41 0 62.33-100.69 137.6-223.75 75.27-123.06 136.85-223.97 136.85-224.25 0-0.28-14.06-0.49-31.25-0.49l-31.25 0.01c-201.79 343.44-212.11 360.61-213.18 358.65-0.65-1.19-48.21-82.27-105.69-180.17l-104.51-178c-61.55-0.51-63.15-0.44-62.21 1.24z"/>
</svg>